<svg width="43" height="39" viewBox="0 0 43 39" fill="none" xmlns="http://www.w3.org/2000/svg">
<g clip-path="url(#clip0_44_36)">
<path d="M21.4669 0H5.73015L12.859 7.92752H20.5499C21.9599 8.39094 24.7799 10.0691 24.7799 13.0745C24.7799 16.0798 21.9599 17.3636 20.5499 17.6298H4.96106L10.3447 24.6995H22.0585C25.7757 24.7981 33.2102 22.6112 33.2102 13.0745C33.2102 3.5378 25.3813 0.384544 21.4669 0Z" fill="#202020"/>
<path d="M41.5239 35.2396C41.5239 35.2396 42.7219 37.1711 42.5 38.0254C42.2781 38.8797 40.5181 38.6744 40.5181 38.6744H31.5553L0.785838 5.50075C0.785838 5.50075 1.06272e-05 4.52444 0 3.72578C-6.48207e-06 3.23862 1.50859 3.37087 1.50859 3.37087L5.62025 3.72578C5.96674 3.72578 6.26254 3.93446 6.64709 4.34859L41.5239 35.2396Z" fill="url(#paint0_linear_44_36)"/>
</g>
<defs>
<linearGradient id="paint0_linear_44_36" x1="8.27401" y1="16.3153" x2="36.5232" y2="37.7019" gradientUnits="userSpaceOnUse">
<stop offset="0.211538" stop-color="#64D889"/>
<stop offset="0.252404" stop-color="#5ACA81"/>
<stop offset="0.293269" stop-color="#51BC79"/>
<stop offset="0.966346" stop-color="#338E7F"/>
</linearGradient>
<clipPath id="clip0_44_36">
<rect width="43" height="39" fill="white"/>
</clipPath>
</defs>
</svg>
