<svg width="29" height="29" viewBox="0 0 29 29" fill="none" xmlns="http://www.w3.org/2000/svg">
<path d="M14.5 -0.00115967C11.6322 -0.00115967 8.82875 0.849246 6.44424 2.44253C4.05973 4.03581 2.20122 6.3004 1.10375 8.94993C0.00628138 11.5995 -0.280865 14.5149 0.27862 17.3276C0.838106 20.1404 2.2191 22.724 4.24696 24.7519C6.27482 26.7797 8.85847 28.1607 11.6712 28.7202C14.4839 29.2797 17.3994 28.9926 20.0489 27.8951C22.6984 26.7976 24.963 24.9391 26.5563 22.5546C28.1496 20.1701 29 17.3667 29 14.4988C28.9956 10.6545 27.4666 6.96894 24.7482 4.25061C22.0299 1.53228 18.3443 0.00321039 14.5 -0.00115967ZM27.8057 13.9088H21.875C21.8348 11.7507 21.4298 9.615 20.6772 7.59204C21.9314 7.0004 23.0939 6.23143 24.1292 5.30877C26.3582 7.63448 27.6649 10.6916 27.8057 13.9099V13.9088ZM15.0897 1.69359C15.9834 2.43124 16.7845 3.27434 17.4756 4.20448C18.117 5.06613 18.6671 5.99205 19.1173 6.96736C17.8248 7.44433 16.4661 7.71767 15.0897 7.77759V1.69359ZM16.479 1.32602C19.0021 1.7057 21.3623 2.80459 23.2769 4.49107C22.356 5.29909 21.3278 5.97591 20.2215 6.5023C19.3294 4.54625 18.0572 2.78711 16.479 1.32721V1.32602ZM11.5846 4.20526C12.2603 3.29616 13.0409 2.47 13.9103 1.74392V7.77838C12.552 7.71967 11.2108 7.45277 9.93347 6.98702C10.3855 6.00482 10.9389 5.0725 11.5846 4.20526ZM8.82761 6.52706C7.70223 5.99736 6.6568 5.31227 5.72193 4.49185C7.65463 2.7899 10.0408 1.68704 12.5894 1.31776C11.0005 2.78597 9.72143 4.55732 8.82761 6.52745V6.52706ZM13.9103 8.95775V13.9111H8.36491C8.40957 11.9183 8.78623 9.94686 9.47941 8.07794C10.9012 8.60136 12.3964 8.89799 13.9103 8.95775ZM13.9103 15.0905V19.9597C12.4319 20.0178 10.9711 20.3023 9.57887 20.8034C8.84085 18.9852 8.42987 17.0509 8.36491 15.0897L13.9103 15.0905ZM13.9103 21.1391V27.135C12.327 25.6253 11.0237 23.847 10.0608 21.8825C11.3002 21.4456 12.5974 21.1948 13.9103 21.1383V21.1391ZM12.786 27.7074C10.1449 27.3655 7.66773 26.2368 5.67672 24.4681C6.65426 23.6002 7.75455 22.8815 8.94201 22.335C9.90419 24.3337 11.2047 26.151 12.786 27.7066V27.7074ZM15.0897 27.1912V21.1371C16.4208 21.1944 17.7357 21.4515 18.9903 21.8998C18.0162 23.8819 16.6951 25.6738 15.0897 27.1905V27.1912ZM20.1067 22.3582C21.2755 22.902 22.359 23.6127 23.3233 24.4681C21.3499 26.221 18.8987 27.3457 16.2828 27.6984C17.8545 26.1507 19.148 24.344 20.1067 22.3574V22.3582ZM15.0897 19.9601V15.0897H20.6945C20.6296 17.0577 20.2162 18.9986 19.4734 20.8222C18.0657 20.3093 16.5868 20.0181 15.0897 19.9589V19.9601ZM15.0897 13.9115V8.95814C16.6219 8.89728 18.1346 8.59328 19.5713 8.05749C20.2695 9.9321 20.6487 11.9104 20.6933 13.9103L15.0897 13.9115ZM4.87082 5.31034C5.92007 6.24577 7.10005 7.02329 8.37356 7.61837C7.62714 9.63413 7.22552 11.7612 7.18553 13.9103H1.19432C1.33556 10.6925 2.64227 7.63585 4.87082 5.31034ZM1.19432 15.0897H7.18553C7.24571 17.2042 7.67904 19.2914 8.46554 21.2551C7.13902 21.8637 5.91222 22.6696 4.82679 23.6453C2.62412 21.3246 1.33411 18.2862 1.19432 15.0897ZM24.1713 23.6457C23.1004 22.6824 21.8917 21.8845 20.5852 21.2783C21.3773 19.3078 21.8138 17.2125 21.8742 15.0897H27.8057C27.6653 18.2866 26.3746 21.3251 24.1713 23.6457Z" fill="#0C2C67"/>
</svg>
